<svg xmlns="http://www.w3.org/2000/svg" version="1.0" viewBox="68 48 350 600" stroke-width="1" stroke="#6f2c99" fill="#6f2c99">
    <path d="M177.7 208.3c-3.1.9-17.3 11.5-24.3 18.1-.6.6-6.1 5.3-12.2 10.5-7.6 6.4-11.8 10.7-13.2 13.6-2 4.1-2 5.9-2 109.1 0 65.2.4 106.2 1 108.3 1.1 4 4.2 7.6 8.5 9.9 2.7 1.5 9.8 1.6 72.9 1.5 78.6-.2 79.2-.3 94.3-7.4 4.7-2.2 11.4-6.6 15.6-10.2 4.1-3.4 14-11.7 22-18.5 17.3-14.5 22-19.6 25.8-27.7 4.7-9.9 5.8-19.8 5.5-46.5-.3-24.9-1.1-29.8-6-40.5-3.2-7.1-10.4-14.6-17.6-18.4-3.4-1.8-6-3.6-5.8-3.9 7.5-14.2 9.4-24.4 8.5-44.2-.9-18.2-4.3-28.1-12.9-37.5-8.2-9-19.7-13.8-38.3-16.1-14.6-1.7-115.5-1.8-121.8-.1zm120.5 2.8c17.4 1.8 30.4 7.3 38.2 15.9 7.8 8.7 10.6 17.8 11.3 37.1.8 22.1-1.7 33.2-9.5 41.1-3 3.2-3.3 3.8-1.6 3.8 4.2 0 16 6.7 20.1 11.4 9.4 10.7 11.3 18.1 12 46.1 1 40.8-2.2 50.6-22.2 67.3-5.5 4.7-15.6 13.2-22.5 18.9-15.2 12.9-20.6 16.4-29 19.1-12.6 4.1-16.7 4.3-89.2 4l-69.6-.3-2.6-2.4c-1.4-1.4-3-4.1-3.6-6-1.1-4-1.4-205.9-.3-212.4.7-4.5 1.9-5.7 26.8-26.8 9.8-8.4 19.5-15.9 21.5-16.5 4.6-1.7 105-1.9 120.2-.3z" />
    <path d="m176 216.9-3 2.9v105.6c0 67.4.4 106.4 1 108.1 2.2 5.7 1.7 5.6 77.4 5.2 76-.4 76.4-.4 89.2-6.7 12.9-6.3 19.9-15.7 22.9-30.8 2.2-10.8 1.7-53.6-.8-61.8-3.6-12.4-9.5-19.5-20.3-24.6-7.3-3.4-17.7-5.1-15.6-2.6.7.9 2.9 1.9 4.9 2.3 7.2 1.3 13.9 4.5 18.4 8.9 9.6 9.2 12 19.5 11.9 50.8-.1 14.8-.6 23.6-1.6 27.7-4.2 18.3-15 27.8-36.7 32.1-3.9.8-27.4 1.2-74.2 1.3l-68.4.2-2.3-2.3-2.3-2.2V326.1c0-101.8.1-105 1.9-107 1.9-2.1 2.2-2.1 59.5-2.1 63.9 0 69.7.4 81.6 6.1 11 5.3 17.7 14.1 20.4 26.7 1.7 8.2 1.4 32.8-.5 39.2-2.1 7-3.7 9.5-9.8 15.2-5.4 5-4.5 6.6 1.5 2.5 9.5-6.4 12.9-16.4 12.9-38.2 0-31.5-8.5-44.6-33.4-51.8-6.8-2-10.2-2.1-69.4-2.4l-62.3-.4-2.9 3z" />
</svg>