<svg stroke-width="2" stroke="none" fill="#5FCF80" class="treehouse-icn" xmlns="http://www.w3.org/2000/svg" width="340" viewBox="210.7 336.7 125 135">
    <path d="M319.4 362.3c-4.3-2.5-11.3 1.4-15.5 8.8l-7.6 13.2c-2.8 5.5-2.4 12.1 1.2 17.2l.3.3c3.5 5.1 8.3 9.7 9.8 11.4.9.9 1.6 2.2 2 3.5 1.3 4.6-1.4 9.4-6 10.6-4.6 1.3-9.4-1.4-10.6-6-.3-1.2-.4-2.4-.3-3.4.3-2-.4-5-3.1-8s-8.3 2.8-10.1 8.6l-.1.3c-1.8 5.9-2.9 11-2.6 11.5.3.3.4.7.5.9 2.6 5 .8 10.9-3.9 13.4s-10.6.8-13.2-4.1c-2.5-4.7-.8-10.6 4.1-13.2.3-.1.4-.3.7-.3.4-.1 1.4-2.6 2.2-5.6.9-2.9 1.6-5.4 1.6-5.4.1-.3.1-.7.3-.9l4.8-17.2-5.1 10.6c-.7-2-1.6-2.1-3.8-.5-1.3.9-3.5 2.9-4.6 3.5-2 1.4-3.7 4.2-4.6 6-.5 1-1.3 2-2.2 2.8-3.7 3-9 2.5-12.1-1.3-3-3.7-2.5-9 1.3-12.1 1-.9 2.4-1.4 3.5-1.7 2.2-.5 9.6-5 14-8.1.8-.5 1.4-1 2-1.6l11.8-9-10.3 5.6s-1-.1-2.4 0c-3.8.4-7.7.9-8.4 1.8-.4.5-.9 1-1.6 1.4-3.4 2.5-8.3 1.7-10.7-1.7-2.5-3.4-1.7-8.3 1.7-10.7 1.4-1 3-1.4 4.7-1.4 2.8.1 10.1 1.6 16.1.5l1.6-.3c6-1 13.4-6.4 16.2-11.8 0 0 2.9-5 6.3-11.1 3.5-6.2 3.3-12.8-.5-15.1l-6.9-3.9c-3.5-2-9.2-2-12.7 0l-47.7 26.9c-3.4 2-6.3 6.9-6.3 10.9v52.5c0 4.1 2.9 8.9 6.3 10.9l47.7 26.9c3.5 2 9.2 2 12.7 0l47.6-26.9c3.5-2 6.3-6.8 6.3-10.9v-52.5c0-4.1-2.9-8.9-6.3-10.9-.3.1-3.8-1.9-8.1-4.4z" />
</svg>