<?xml version="1.0" standalone="no"?>
<!DOCTYPE svg PUBLIC "-//W3C//DTD SVG 20010904//EN"
 "http://www.w3.org/TR/2001/REC-SVG-20010904/DTD/svg10.dtd">
<svg version="1.0" xmlns="http://www.w3.org/2000/svg"
 width="578.000000pt" height="880.000000pt" viewBox="0 0 578.000000 880.000000"
 preserveAspectRatio="xMidYMid meet">
<metadata>
Created by potrace 1.10, written by Peter Selinger 2001-2011
</metadata>
<g transform="translate(0.000000,880.000000) scale(0.100000,-0.100000)"
fill="#000000" stroke="none">
<path d="M4460 5403 c0 -1868 -4 -3401 -8 -3405 -4 -4 -1007 -9 -2227 -11
-2105 -2 -2220 -3 -2223 -19 -3 -17 109 -18 2247 -18 l2251 0 0 3425 c0 3415
0 3425 -20 3425 -20 0 -20 -10 -20 -3397z"/>
<path d="M1854 8288 c-64 -16 -86 -83 -46 -138 22 -29 22 -29 22 -681 0 -359
3 -663 6 -675 3 -13 15 -26 27 -30 46 -15 47 -7 47 568 0 339 4 538 10 538 22
0 28 -46 29 -229 2 -207 3 -212 57 -273 l33 -37 1 -273 c0 -285 4 -310 44
-295 31 12 36 58 36 326 l0 268 -28 39 c-16 21 -36 45 -45 53 -15 12 -17 38
-17 206 0 177 2 194 20 218 30 38 27 100 -6 126 -28 22 -88 28 -99 11 -3 -5
-13 -10 -21 -10 -10 0 -14 14 -14 58 0 46 5 65 25 92 40 54 31 106 -23 132
-18 10 -38 12 -58 6z m54 -34 c29 -20 29 -67 0 -91 l-23 -18 0 -684 c0 -539
-3 -685 -12 -688 -10 -4 -13 138 -13 686 0 679 0 690 -20 701 -32 17 -36 57
-9 86 26 28 46 30 77 8z m128 -289 c14 -21 15 -31 6 -51 -7 -13 -19 -27 -27
-30 -13 -5 -15 -38 -15 -218 l0 -212 45 -44 45 -44 0 -298 c0 -258 -2 -298
-15 -298 -13 0 -15 39 -15 293 l0 293 -45 44 -46 45 1 212 c1 201 0 213 -19
232 -41 41 -20 101 34 101 26 0 39 -6 51 -25z"/>
<path d="M2340 7947 c-51 -26 -59 -82 -20 -138 18 -25 19 -44 17 -256 l-2
-229 -32 -34 -33 -35 0 -236 c0 -212 2 -237 18 -252 15 -14 19 -14 37 -1 19
14 20 28 23 227 3 230 5 257 26 257 8 0 21 18 30 40 13 33 16 82 16 265 0 223
0 224 25 261 14 20 25 43 25 51 0 27 -31 74 -56 83 -33 13 -44 12 -74 -3z m82
-34 c29 -26 17 -93 -17 -93 -13 0 -15 -38 -15 -258 l0 -258 -35 -34 -35 -34 0
-234 c0 -182 -3 -233 -12 -230 -10 4 -14 62 -16 238 l-2 234 35 36 35 36 1
246 c1 237 0 247 -20 267 -56 56 22 138 81 84z"/>
<path d="M3113 7800 c-47 -28 -52 -64 -20 -122 l27 -48 -1 -261 0 -261 -31
-30 c-17 -17 -48 -50 -70 -75 -38 -44 -38 -44 -38 -133 0 -80 2 -91 22 -110
l23 -21 17 22 c14 16 18 40 18 96 l0 75 59 61 c32 34 63 72 70 84 7 14 11 98
11 245 l0 223 25 -29 25 -29 0 -356 c-1 -297 -3 -359 -15 -375 -8 -11 -15 -29
-14 -40 0 -20 1 -20 9 1 5 12 18 27 29 33 21 11 21 18 21 384 l0 372 -25 22
c-14 12 -25 31 -25 42 0 27 35 60 63 60 51 0 77 -75 36 -103 -20 -15 -20 -21
-19 -392 l1 -376 -35 -35 c-19 -19 -30 -37 -25 -40 5 -3 25 10 44 29 l35 35 0
369 0 368 25 27 c47 51 19 131 -51 144 -25 5 -38 0 -68 -26 l-36 -32 0 25 c0
13 8 35 19 48 10 13 21 38 25 55 6 27 2 35 -29 63 -42 36 -58 38 -102 11z m96
-42 c13 -23 13 -30 1 -52 -7 -14 -19 -26 -27 -26 -10 0 -13 -57 -13 -298 l0
-298 -65 -64 -65 -64 0 -99 c0 -88 -2 -98 -17 -95 -15 3 -17 16 -16 102 l2
100 65 65 65 66 1 289 c1 280 1 289 -19 303 -26 17 -27 59 -4 85 25 28 73 20
92 -14z"/>
<path d="M1607 7639 c-46 -36 -52 -64 -22 -115 35 -60 32 -83 -16 -129 -71
-69 -69 -57 -69 -432 0 -311 6 -394 24 -348 3 9 6 172 6 361 l0 345 55 56 c47
48 55 61 55 94 0 26 -6 42 -19 51 -11 8 -23 26 -26 40 -13 53 62 90 98 50 23
-26 22 -69 -3 -84 -16 -10 -20 -24 -20 -65 0 -50 -2 -53 -55 -99 l-55 -48 0
-346 c0 -296 -2 -349 -15 -368 -14 -20 -14 -21 0 -16 32 12 36 45 36 239 -1
106 2 201 5 209 5 13 10 11 26 -10 18 -22 21 -43 24 -162 5 -198 24 -195 24 4
0 148 -1 160 -20 172 -27 17 -28 77 -1 92 27 14 66 13 79 -2 24 -31 23 -57 -2
-83 -26 -25 -26 -28 -26 -173 0 -105 -4 -152 -12 -161 -11 -10 -9 -11 5 -5 28
10 34 38 36 173 2 106 5 128 22 149 34 44 22 104 -28 130 -33 18 -59 14 -91
-13 -29 -24 -31 -25 -37 -6 -3 10 -5 50 -3 87 2 68 3 70 55 126 43 46 53 65
53 92 0 19 6 41 13 48 42 42 48 95 15 132 -33 37 -76 43 -111 15z"/>
<path d="M2659 7521 c-36 -36 -37 -67 -4 -111 25 -34 25 -36 25 -245 l0 -211
70 -75 c38 -41 70 -82 70 -91 0 -22 37 -33 55 -18 8 7 15 28 15 47 0 28 -11
45 -65 101 l-65 67 0 197 c0 194 0 198 25 234 62 91 -48 183 -126 105z m95
-12 c33 -26 34 -62 1 -87 l-25 -20 0 -214 0 -214 70 -69 c58 -58 70 -75 70
-102 0 -23 -5 -33 -15 -33 -10 0 -15 10 -15 27 0 19 -19 46 -71 99 l-70 73 3
218 c3 216 3 218 -19 236 -43 35 -19 99 38 106 4 1 18 -8 33 -20z"/>
<path d="M2435 7115 c-31 -30 -33 -82 -6 -116 15 -19 20 -45 22 -121 3 -83 7
-99 24 -112 18 -13 22 -13 38 1 14 13 17 33 17 102 0 76 3 91 25 123 33 49 32
87 -3 121 -37 35 -84 36 -117 2z m93 -11 c30 -21 30 -77 1 -98 -20 -14 -21
-23 -20 -126 2 -100 0 -111 -15 -108 -14 3 -16 17 -15 110 2 102 1 107 -23
132 -32 31 -33 50 -1 81 28 29 42 31 73 9z"/>
<path d="M1777 6717 c-31 -9 -173 -115 -243 -181 -6 -6 -61 -53 -122 -105 -76
-64 -118 -107 -132 -136 -20 -41 -20 -59 -20 -1091 0 -652 4 -1062 10 -1083
11 -40 42 -76 85 -99 27 -15 98 -16 729 -15 786 2 792 3 943 74 47 22 114 66
156 102 41 34 140 117 220 185 173 145 220 196 258 277 47 99 58 198 55 465
-3 249 -11 298 -60 405 -32 71 -104 146 -176 184 -34 18 -60 36 -58 39 75 142
94 244 85 442 -9 182 -43 281 -129 375 -82 90 -197 138 -383 161 -146 17
-1155 18 -1218 1z m1205 -28 c174 -18 304 -73 382 -159 78 -87 106 -178 113
-371 8 -221 -17 -332 -95 -411 -30 -32 -33 -38 -16 -38 42 0 160 -67 201 -114
94 -107 113 -181 120 -461 10 -408 -22 -506 -222 -673 -55 -47 -156 -132 -225
-189 -152 -129 -206 -164 -290 -191 -126 -41 -167 -43 -892 -40 l-696 3 -26
24 c-14 14 -30 41 -36 60 -11 40 -14 2059 -3 2124 7 45 19 57 268 268 98 84
195 159 215 165 46 17 1050 19 1202 3z"/>
<path d="M1760 6631 l-30 -29 0 -1056 c0 -674 4 -1064 10 -1081 22 -57 17 -56
774 -52 760 4 764 4 892 67 129 63 199 157 229 308 22 108 17 536 -8 618 -36
124 -95 195 -203 246 -73 34 -177 51 -156 26 7 -9 29 -19 49 -23 72 -13 139
-45 184 -89 96 -92 120 -195 119 -508 -1 -148 -6 -236 -16 -277 -42 -183 -150
-278 -367 -321 -39 -8 -274 -12 -742 -13 l-684 -2 -23 23 -23 22 0 1049 c0
1018 1 1050 19 1070 19 21 22 21 595 21 639 0 697 -4 816 -61 110 -53 177
-141 204 -267 17 -82 14 -328 -5 -392 -21 -70 -37 -95 -98 -152 -54 -50 -45
-66 15 -25 95 64 129 164 129 382 0 315 -85 446 -334 518 -68 20 -102 21 -694
24 l-623 4 -29 -30z"/>
<path d="M2108 6412 c-20 -2 -42 -10 -50 -19 -11 -13 -13 -173 -13 -855 l0
-840 24 -20 c24 -19 39 -19 515 -16 428 4 499 6 550 21 102 30 164 78 200 156
19 43 21 63 21 281 0 224 -1 237 -23 285 -40 86 -110 143 -218 175 l-42 13 28
44 c44 69 54 128 53 328 0 158 -3 187 -21 240 -38 103 -121 167 -252 194 -50
10 -678 21 -772 13z m695 -32 c169 -17 263 -76 303 -191 16 -45 19 -85 19
-239 0 -199 -7 -237 -53 -299 -14 -19 -49 -45 -81 -60 l-56 -26 90 -6 c109 -7
187 -40 239 -100 54 -63 61 -106 61 -354 0 -206 -1 -222 -22 -260 -44 -83
-118 -127 -239 -145 -38 -5 -277 -10 -531 -10 l-463 0 0 843 c0 464 3 847 7
850 10 11 615 8 726 -3z"/>
<path d="M2110 5959 l0 -390 383 3 c335 3 388 6 427 21 71 28 118 64 142 110
22 40 23 53 23 238 l0 196 -35 69 c-31 61 -41 72 -90 96 -77 40 -169 48 -537
48 l-313 0 0 -391z m805 331 c49 -20 66 -34 92 -73 49 -72 55 -110 51 -296 -4
-193 -14 -226 -82 -266 -84 -49 -134 -55 -482 -55 -177 0 -329 3 -338 6 -14 5
-16 46 -16 354 0 269 3 350 13 354 6 3 167 4 357 3 341 -3 346 -3 405 -27z"/>
<path d="M2443 6160 c-37 -15 -43 -42 -43 -200 0 -149 0 -151 26 -177 25 -25
25 -25 179 -22 136 4 157 6 182 25 51 38 64 77 61 189 -3 86 -6 105 -27 133
-13 18 -35 38 -50 44 -33 13 -299 20 -328 8z m324 -38 c39 -22 53 -63 53 -159
0 -156 -24 -173 -242 -173 l-148 0 0 176 0 176 158 -4 c100 -2 165 -8 179 -16z"/>
<path d="M2110 5132 l0 -403 493 3 c550 4 553 4 622 75 48 49 65 109 72 248
12 263 -40 405 -167 450 -61 23 -139 26 -613 28 l-407 2 0 -403z m926 364 c57
-6 113 -27 145 -54 30 -25 66 -100 77 -162 13 -71 9 -313 -7 -367 -22 -80 -91
-132 -193 -147 -25 -4 -238 -7 -474 -7 -339 0 -429 3 -436 13 -4 7 -8 174 -8
370 l1 357 127 3 c190 4 710 0 768 -6z"/>
<path d="M2441 5338 c-36 -13 -41 -42 -41 -216 0 -231 -22 -214 273 -210 211
3 227 4 254 24 54 41 64 72 64 195 -1 127 -13 159 -71 194 -32 18 -52 20 -247
20 -117 0 -222 -3 -232 -7z m469 -41 c40 -19 50 -53 50 -167 0 -185 -9 -190
-312 -190 l-218 0 0 188 0 187 227 -3 c149 -2 237 -7 253 -15z"/>
<path d="M3166 4128 c-13 -19 -16 -62 -17 -229 0 -113 -4 -211 -8 -217 -5 -8
-14 -3 -28 16 -19 26 -21 43 -22 172 -2 148 -9 180 -41 180 -32 0 -38 -28 -42
-185 -3 -138 -5 -153 -25 -179 -36 -46 -25 -99 27 -129 38 -23 51 -21 94 8 46
31 50 24 44 -80 -3 -73 -4 -75 -50 -122 -53 -56 -66 -78 -66 -116 0 -16 -8
-41 -19 -56 -34 -45 -37 -68 -13 -105 24 -40 67 -54 109 -36 54 22 69 89 30
139 -31 39 -25 75 22 118 71 66 69 53 69 441 0 192 -3 357 -6 367 -18 47 -24
-38 -24 -370 l0 -361 -55 -54 c-51 -51 -55 -58 -55 -101 0 -38 4 -49 19 -54
27 -8 35 -52 16 -81 -22 -34 -78 -34 -100 0 -19 29 -11 73 16 81 15 5 19 16
19 59 0 49 2 54 55 106 l55 54 0 361 c0 265 3 364 12 373 6 6 9 14 6 18 -4 3
-13 -5 -22 -18z m-104 -263 c-2 -113 0 -175 6 -175 38 0 55 -69 25 -102 -34
-37 -103 -10 -103 42 0 27 22 60 39 60 4 0 5 72 3 160 -4 164 -2 190 20 190
10 0 12 -38 10 -175z"/>
<path d="M2826 3981 c-15 -17 -17 -71 -17 -574 1 -306 -2 -563 -5 -572 -5 -12
-9 -13 -20 -4 -11 9 -14 55 -14 225 l0 213 -45 48 -45 48 0 285 c0 242 -2 289
-16 308 -8 12 -21 22 -29 22 -32 0 -36 -39 -35 -341 0 -295 1 -302 22 -333 13
-17 32 -38 43 -48 19 -15 20 -30 23 -205 3 -185 3 -189 -22 -236 -31 -58 -33
-86 -6 -120 27 -33 71 -43 110 -23 27 13 32 13 37 0 12 -31 -3 -121 -25 -149
-31 -39 -28 -80 7 -116 84 -83 197 32 123 125 l-22 28 0 607 c0 333 0 649 0
702 0 91 -1 98 -24 112 -22 15 -25 15 -40 -2z m35 -727 l-1 -721 25 -17 c47
-31 22 -106 -34 -106 -32 0 -44 8 -60 38 -10 19 -10 28 4 48 9 14 22 27 28 30
9 3 11 172 9 717 -1 391 0 718 3 725 3 8 10 12 16 10 7 -2 10 -218 10 -724z
m-209 403 l-3 -302 46 -45 45 -44 0 -224 0 -224 25 -20 c29 -22 32 -54 9 -86
-31 -44 -104 -17 -104 39 0 25 22 59 38 59 4 0 6 100 4 222 l-3 223 -44 45
-45 46 0 307 c0 286 1 307 18 307 16 0 17 -20 14 -303z"/>
<path d="M1356 3971 c-15 -16 -17 -61 -17 -383 l0 -365 -24 -33 c-45 -60 -26
-121 46 -148 27 -11 49 -3 87 31 l22 20 0 -27 c0 -15 -9 -39 -20 -53 -38 -48
-20 -108 40 -133 39 -16 85 1 105 41 20 38 19 50 -10 93 l-24 36 -1 278 0 278
50 49 c84 83 93 104 91 203 -2 63 -7 92 -18 104 -38 42 -62 6 -63 -92 l0 -76
-70 -78 -70 -79 -1 -181 c-1 -99 -1 -205 -1 -233 0 -29 -3 -55 -7 -58 -4 -2
-17 9 -29 24 -21 28 -21 39 -22 391 0 209 -4 370 -10 380 -14 26 -36 31 -54
11z m35 -389 l-2 -384 26 -23 c43 -41 23 -105 -34 -105 -32 0 -44 8 -60 38
-13 24 -2 55 25 70 13 7 15 58 14 401 0 356 1 392 16 389 14 -3 16 -41 15
-386z m289 280 l0 -98 -75 -74 -75 -74 0 -294 0 -294 25 -20 c29 -22 32 -54 9
-86 -18 -26 -65 -30 -88 -6 -23 23 -21 81 4 94 19 10 20 21 20 313 l0 302 72
72 72 72 -3 96 c-2 90 -2 95 18 95 20 0 21 -5 21 -98z"/>
<path d="M2186 3971 c-14 -15 -18 -40 -20 -119 -2 -81 -7 -105 -23 -128 -35
-51 -37 -80 -6 -114 41 -45 83 -49 123 -13 41 36 44 79 10 125 -20 27 -23 44
-24 130 -2 84 -5 101 -22 118 -20 21 -20 21 -38 1z m34 -127 c0 -112 1 -118
25 -140 14 -13 25 -31 25 -42 0 -26 -37 -62 -63 -62 -60 1 -88 83 -36 110 17
10 19 22 19 130 0 100 3 120 15 120 12 0 15 -20 15 -116z"/>
<path d="M1802 3955 c-7 -14 -12 -34 -12 -44 0 -22 43 -82 98 -137 l42 -42 0
-211 0 -211 -25 -16 c-54 -35 -22 -123 51 -143 83 -23 138 81 79 151 l-25 30
0 219 0 219 -65 68 c-36 37 -68 78 -72 92 -7 26 -30 49 -49 50 -6 0 -16 -11
-22 -25z m48 -28 c0 -27 12 -44 70 -102 l71 -70 -1 -228 c-1 -223 -1 -228 21
-245 47 -39 9 -121 -50 -107 -54 13 -68 70 -26 103 l25 20 0 223 0 224 -69 70
c-53 54 -70 78 -74 108 -5 32 -3 37 14 37 15 0 19 -7 19 -33z"/>
<path d="M2372 3958 c-8 -16 -13 -99 -15 -250 l-2 -227 -26 -28 c-48 -51 -49
-59 -49 -311 0 -231 -1 -240 -22 -267 -47 -60 -11 -145 62 -145 53 0 90 32 90
76 0 36 -15 74 -34 86 -17 11 -15 486 2 496 6 5 23 23 37 42 25 34 25 34 25
270 0 197 -3 239 -16 258 -19 28 -37 28 -52 0z m40 -250 l-3 -253 -34 -35 -34
-35 -1 -251 -1 -252 25 -25 c30 -30 32 -44 10 -75 -30 -43 -114 -19 -114 34 0
23 23 54 41 54 5 0 9 110 9 268 l0 268 35 34 35 34 0 243 c0 225 1 243 18 243
16 0 17 -17 14 -252z"/>
</g>
</svg>
