<svg xmlns="http://www.w3.org/2000/svg" width="800" height="800" fill="none" viewBox="0 0 16 16">
    <path fill="#000" fill-rule="evenodd" d="M2.471 11.318a1.474 1.474 0 0 0 1.47-1.471v-1.47h-1.47A1.474 1.474 0 0 0 1 9.846a1.472 1.472 0 0 0 1.47 1.47zm3.682-2.942a1.474 1.474 0 0 0-1.47 1.471v3.683A1.474 1.474 0 0 0 6.153 15a1.474 1.474 0 0 0 1.47-1.47V9.846a1.474 1.474 0 0 0-1.47-1.47zm-1.47-5.905a1.472 1.472 0 0 0 1.47 1.47h1.47v-1.47A1.474 1.474 0 0 0 6.154 1a1.474 1.474 0 0 0-1.47 1.47zm2.94 3.682a1.474 1.474 0 0 0-1.47-1.47H2.47A1.474 1.474 0 0 0 1 6.153c.002.812.66 1.469 1.47 1.47h3.684a1.474 1.474 0 0 0 1.47-1.47zm2.224 1.471a1.474 1.474 0 0 0 1.47-1.47V2.47A1.474 1.474 0 0 0 9.848 1a1.474 1.474 0 0 0-1.47 1.47v3.684c.002.81.659 1.468 1.47 1.47zm3.682-2.941a1.474 1.474 0 0 0-1.47 1.47v1.47h1.47A1.474 1.474 0 0 0 15 6.154a1.474 1.474 0 0 0-1.47-1.47zM8.377 9.847a1.473 1.473 0 0 0 1.47 1.47h3.683A1.474 1.474 0 0 0 15 9.848a1.474 1.474 0 0 0-1.47-1.47H9.847a1.474 1.474 0 0 0-1.47 1.47zm2.94 3.682a1.474 1.474 0 0 0-1.47-1.47h-1.47v1.47a1.472 1.472 0 0 0 1.47 1.47 1.474 1.474 0 0 0 1.47-1.47z" clip-rule="evenodd"/>
</svg>